<?xml version="1.0" standalone="no"?>
<!DOCTYPE svg PUBLIC "-//W3C//DTD SVG 20010904//EN"
 "http://www.w3.org/TR/2001/REC-SVG-20010904/DTD/svg10.dtd">
<svg version="1.0" xmlns="http://www.w3.org/2000/svg"
 width="318.000000pt" height="318.000000pt" viewBox="0 0 318.000000 318.000000"
 preserveAspectRatio="xMidYMid meet">
<metadata>
Created by potrace 1.14, written by Peter Selinger 2001-2017
</metadata>
<g transform="translate(0.000000,318.000000) scale(0.100000,-0.100000)"
fill="#000000" stroke="none">
<path d="M1163 2670 c-67 -14 -120 -47 -163 -101 -22 -28 -40 -55 -40 -59 0
-20 -38 -14 -67 11 -92 79 -206 108 -350 90 -100 -13 -147 -41 -181 -110 l-27
-56 0 -825 0 -825 27 -56 c38 -76 87 -104 183 -104 96 0 145 28 183 104 l27
56 6 350 c5 335 11 392 37 409 6 3 18 -7 28 -22 53 -78 82 -178 115 -397 5
-33 13 -134 18 -224 9 -151 11 -168 38 -220 21 -41 41 -63 77 -86 45 -27 58
-30 150 -33 95 -3 104 -2 156 25 39 21 63 42 83 75 30 49 33 61 58 302 6 61
20 130 30 154 18 42 20 43 40 30 31 -20 147 -253 159 -318 27 -144 90 -205
215 -205 127 0 191 63 214 212 9 59 37 151 66 218 8 17 21 52 30 78 20 61 47
109 63 115 24 8 33 -54 41 -280 8 -225 9 -230 37 -286 22 -42 41 -64 78 -87
47 -29 54 -30 161 -30 107 0 114 1 161 30 37 24 56 44 79 90 l30 59 0 865 0
866 -28 57 c-20 41 -41 65 -74 87 -61 40 -93 46 -253 46 -123 -1 -140 -3 -190
-27 -33 -15 -78 -49 -113 -85 -32 -33 -66 -60 -75 -60 -9 0 -26 10 -38 22 -69
74 -188 103 -347 84 -51 -6 -110 -13 -133 -16 -33 -4 -55 3 -122 37 l-81 42
-133 3 c-73 3 -152 0 -175 -5z m-374 -179 c10 -13 24 -40 31 -60 7 -20 43
-119 81 -221 37 -102 95 -259 128 -350 99 -274 172 -462 198 -514 l25 -49 32
59 c29 52 98 231 267 689 28 77 69 187 91 245 22 58 44 120 50 139 5 19 23 47
38 63 28 28 29 28 163 28 118 0 138 -2 158 -19 l24 -19 1 -858 1 -858 -23 -23
c-19 -19 -34 -23 -89 -23 -55 0 -70 4 -89 23 l-23 23 0 651 c-1 631 -7 873
-23 856 -13 -14 -89 -191 -126 -292 -20 -53 -55 -148 -79 -211 -24 -63 -85
-225 -134 -358 -50 -134 -102 -263 -115 -287 -29 -49 -61 -60 -156 -51 -61 6
-92 31 -109 89 -5 17 -41 115 -80 217 -39 102 -111 293 -160 425 -105 283
-119 318 -162 410 l-33 70 -7 -65 c-4 -36 -7 -377 -8 -758 l-1 -693 -25 -24
c-21 -22 -33 -25 -90 -25 -57 0 -69 3 -90 25 l-25 24 0 851 0 851 25 25 c25
25 27 25 171 22 139 -3 146 -4 163 -27z m689 -38 c11 -27 25 -73 32 -103 11
-49 10 -61 -9 -114 -11 -33 -25 -64 -30 -69 -5 -5 -18 7 -31 27 -12 20 -25 36
-29 36 -4 0 -15 14 -25 31 l-18 31 -19 -53 c-13 -38 -19 -84 -19 -154 -1 -116
-16 -335 -24 -343 -15 -14 -21 21 -32 186 -24 340 -18 392 58 458 l35 31 -48
11 c-27 7 -62 9 -79 6 -37 -8 -45 -41 -36 -145 6 -66 -8 -368 -20 -449 -5 -28
-7 -31 -15 -17 -16 28 -29 228 -29 460 l0 217 159 0 159 0 20 -47z m1272 -833
l0 -880 -95 0 -95 0 0 708 c-1 653 -2 712 -19 776 -18 68 -18 69 -32 44 -64
-117 -92 -179 -161 -362 -43 -115 -95 -247 -116 -295 l-37 -86 -7 45 c-14 88
2 258 34 360 35 112 173 491 195 538 l15 32 159 0 159 0 0 -880z m-1020 -145
c0 -5 -5 -3 -10 5 -5 8 -10 20 -10 25 0 6 5 3 10 -5 5 -8 10 -19 10 -25z
m-540 -543 c0 -26 35 -112 45 -112 9 0 30 53 50 128 4 13 12 21 18 19 18 -6
25 -44 26 -139 l1 -88 -96 0 -96 0 4 108 c4 118 12 147 35 117 7 -11 13 -25
13 -33z"/>
<path d="M530 1625 c0 -700 2 -795 15 -795 13 0 15 89 15 743 l0 744 30 41
c17 23 35 42 40 42 6 0 10 5 10 10 0 6 -25 10 -55 10 l-55 0 0 -795z"/>
<path d="M1870 2410 c0 -5 4 -10 10 -10 5 0 23 -19 40 -42 l30 -41 0 -744 c0
-654 2 -743 15 -743 13 0 15 95 15 795 l0 795 -55 0 c-30 0 -55 -4 -55 -10z"/>
<path d="M2564 2428 l-42 -10 36 -32 c75 -66 72 -28 72 -807 0 -383 3 -711 6
-728 8 -41 30 -40 38 1 6 36 11 1566 5 1572 -11 11 -79 13 -115 4z"/>
</g>
</svg>
